<svg id="Layer_1" data-name="Layer 1" xmlns="http://www.w3.org/2000/svg" viewBox="0 0 460.11 100.3"><defs><style>.cls-1,.cls-3{fill:#2b6bb4;}.cls-2{fill:none;}.cls-3{isolation:isolate;font-size:82px;font-family:Righteous-Regular, Righteous;}.cls-4{letter-spacing:0em;}</style></defs><path class="cls-1" d="M97.7,271.6a27,27,0,0,0-2.7,5,9.37,9.37,0,0,0-.9,5,3.5,3.5,0,0,0,.9,1.7,5.55,5.55,0,0,0,.8.6c.3.1.7.3,1,.4a16.79,16.79,0,0,0,5.1.4,51.47,51.47,0,0,0,10.9-1.7c1.8-.4,3.7-.9,5.5-1.3s3.7-1,5.5-1.6c7.3-2.2,14.6-4.5,21.7-7.2a146.31,146.31,0,0,0,20.6-9.1,58.55,58.55,0,0,0,9.1-5.7,15,15,0,0,0,3.1-3.1c.3-.4.4-.8.4-.7s.2.7.2.6a3.07,3.07,0,0,0-.9-.6,9.33,9.33,0,0,0-2-.7,25.94,25.94,0,0,0-5.1-.8c-1.8-.2-3.6-.2-5.5-.3s-3.7-.1-5.6,0-3.8.1-5.7.2l-2.8.2-2.8.2c-3.8.3-7.5.9-11.3,1.5s-7.5,1.5-11.2,2.4c-1.9.5-3.7,1-5.5,1.6a49.77,49.77,0,0,0-5.4,2l-.3-.4a62.8,62.8,0,0,1,10.6-4.8,109.18,109.18,0,0,1,11.1-3.4,126.5,126.5,0,0,1,23-3.5,90.15,90.15,0,0,1,11.6-.2,28.91,28.91,0,0,1,5.8.8,13.09,13.09,0,0,1,2.8.9,8.32,8.32,0,0,1,2.6,1.7,2.85,2.85,0,0,1,.8,1.4,3,3,0,0,1,.2,1.6,7.29,7.29,0,0,1-1.1,2.9,20.91,20.91,0,0,1-4.1,4.3,60.38,60.38,0,0,1-9.8,6.3,167.6,167.6,0,0,1-21.4,9.1c-7.3,2.5-14.8,4.8-22.3,6.6-3.8.9-7.5,1.8-11.4,2.4a64.14,64.14,0,0,1-11.6,1,19.64,19.64,0,0,1-5.8-1,5.39,5.39,0,0,1-1.3-.7,5.24,5.24,0,0,1-1.1-1,4.3,4.3,0,0,1-1.1-2.8,11.29,11.29,0,0,1,1.5-5.7,25.62,25.62,0,0,1,3.3-4.8Z" transform="translate(-92.29 -248.2)"/><rect class="cls-2" x="13.11" y="15.6" width="447" height="84.7"/><text class="cls-3" transform="translate(13.06 75.51)">GoodD<tspan class="cls-4" x="252.89" y="0">ee</tspan><tspan x="338.33" y="0">ds</tspan></text></svg>