<?xml version="1.0" encoding="utf-8"?>
<!-- Generator: Adobe Illustrator 24.2.3, SVG Export Plug-In . SVG Version: 6.00 Build 0)  -->
<svg version="1.1" id="Layer_1" xmlns="http://www.w3.org/2000/svg" xmlns:xlink="http://www.w3.org/1999/xlink" x="0px" y="0px"
	 viewBox="0 0 417 282" style="enable-background:new 0 0 417 282;" xml:space="preserve">
<style type="text/css">
	.st0{opacity:0.8;}
	.st1{fill:#DB650A;}
</style>
<g id="Vente">
	<g id="Vente_Logo">
		<g>
			<g id="Group" transform="translate(186.551559, 28.000000)" class="st0">
				<path id="Path" class="st1" d="M28.1,24.1c2-0.9,4.5-2.3,7.4-3.8c1.5-0.7,3.1-1.5,4.7-2.4c0.8-0.4,1.7-0.8,2.6-1.2l2.7-1.3
					c8.4-3.8,17-6.9,26-9C80.9,4.2,90.4,3,100,3h3.3c1.1,0,2.2,0.1,3.2,0.2c2.1,0.2,4.2,0.2,6.1,0.5c1.9,0.3,3.8,0.5,5.6,0.7l4.9,1
					c2.3,0.4,4.5,0.9,6.5,1.5l2.9,0.8l2.7,0.9c1.7,0.6,3.3,1.1,4.8,1.6l4,1.7c2.1,0.9,0.7,0.4-3.1-1.1l-1.5-0.6l-1.8-0.6l-4.1-1.4
					l-1.1-0.4l-1.2-0.3l-2.5-0.7c-1.7-0.5-3.6-1-5.6-1.4c-8.4-1.7-17-2.4-25.5-2.2c3.1,0.3,6.2,0.5,9.2,0.9c1.5,0.2,3,0.4,4.4,0.7
					l4.2,0.9c4.8,1.1,9.6,2.5,14.2,4.3l2.2,0.5l2.2,0.6l4.4,1.3c1.5,0.5,2.9,1,4.4,1.6c1.5,0.5,2.9,1.1,4.4,1.7
					c6.3,2.6,12.4,5.8,18.2,9.5c5.7,3.6,11.1,7.8,16.1,12.3c5,4.5,9.5,9.5,13.6,14.9c4.1,5.4,7.7,11.1,10.7,17.2
					c3.1,6.1,5.7,12.4,7.8,18.9c2.1,6.4,3.4,13,4.1,19.7c-1.4-9.8-4.1-19.3-7.9-28.4c-1.9-4.6-4.1-9-6.6-13.3
					c-1.3-2.1-2.5-4.3-3.9-6.3c-0.7-1-1.4-2.1-2.1-3.1l-2.2-3c-0.7-1-1.5-2-2.3-2.9s-1.6-1.9-2.4-2.8l-2.5-2.7
					c-0.4-0.5-0.8-0.9-1.3-1.4l-1.3-1.3l-2.6-2.6l-2.7-2.5l-1.4-1.2l-1.4-1.2l-2.8-2.4c-7.8-6.1-16.3-11.1-25.4-15
					c0.9,0.4,1.9,1,2.8,1.5c18.7,9,34.5,22.9,45.9,40.3c0.9,1.4,2,2.8,2.8,4.4c0.8,1.6,1.8,3.1,2.6,4.7c-0.8-1.6-1.7-3.1-2.6-4.6
					c-0.9-1.5-1.9-3-2.8-4.5c-5.3-7.6-11.6-14.5-18.7-20.5c-4.7-4.4-9.7-8.4-15-12c-1.1-0.7-2.1-1.3-3.1-2c-0.5-0.3-1-0.7-1.5-1
					l-1.5-0.9l-3-2c-1-0.6-2.1-1.2-3.1-1.8l-2.1-1l-2.1-0.9c-1.4-0.6-2.8-1.3-4.3-1.8c-0.9-0.2-1.8-0.5-2.8-0.8l0.1,0.1
					c0.6,0.5,1.2,0.9,1.9,1.3l1.5,0.8l1.7,1c2.5,1.4,5.8,3.2,9.4,5.5c8.4,5.2,16.2,11.5,23.2,18.5l1.4,1.4l1.4,1.5
					c0.9,0.9,1.8,2,2.7,3c1.7,2.1,3.4,4,4.9,6.1c1.5,2.1,2.9,4.1,4.3,6.1c0.7,1,1.3,2,1.9,3s1.2,1.9,1.7,2.9
					c3.1,5.5,5.9,11.1,8.4,16.9c2,4.5,4.3,8.7,6.2,13.3c1,2.3,1.8,4.6,2.7,7.1c0.4,1.2,0.7,2.5,1,3.8c0.2,0.7,0.3,1.3,0.5,2
					c0.1,0.7,0.2,1.4,0.3,2.1c0.3,1.7,0.4,3.5,0.4,5.2c0,1.5,0.2,3,0.5,4.5c0.4,0.3,0.7,1.7,1,3.2c0.1,3.7-0.2,7.4-0.8,11
					c-0.2,1.8-0.5,3.4-0.7,5.1c-0.1,0.8-0.1,1.6-0.2,2.4s-0.1,1.5-0.1,2.3c-0.2,1.4-0.7,2.7-1.4,3.9c-0.8,1.5-1.9,3.1-2.9,4.6
					c-2.1,2.9-4.1,5.4-3.8,5.9c1.4,2.1,1.6,2.4,1,3.2c-1.5,2-2.8,4.2-3.8,6.5c-0.3,1-0.5,2.1-0.6,3.1c-0.1,0.7-0.2,1.4-0.4,2.1
					c-0.2,0.6-0.4,1.2-0.7,1.8c-1.1,1.6-1.9,3-2.6,4.2c-0.7,1.2-1.3,2.4-1.8,3.6c-0.5,1.2-1.2,2.4-1.9,3.8c-0.8,1.7-1.8,3.3-2.8,4.9
					c-2.5,4.1-5.5,7.9-9.1,11.1c-1.4,1.3-2.7,2.7-4.2,4.2c-0.7,0.8-1.5,1.6-2.3,2.6c-0.8,1-1.7,2-2.6,3.2c-0.1,0.1-0.4,0.5-0.9,0.9
					l-1.8,1.7c-0.7,0.7-1.5,1.4-2.4,2.2L168,221c-0.5,0.4-0.9,0.8-1.4,1.2l-1.4,1.1l-2.4,1.9c-0.7,0.5-1.3,0.9-1.7,1.2l-0.7,0.5
					l-2.4,1.3c-0.8,0.4-1.5,0.8-2.3,1.2c-1.5,0.7-2.9,1.6-4.3,2.2c-1.4,0.6-2.7,1.3-4,1.9l-3.9,1.6c-1.3,0.5-2.6,0.9-3.9,1.3
					c-1.3,0.4-2.6,0.8-3.9,1c-1.3,0.3-2.7,0.5-4,0.6s-2.8,0.1-4.2,0.1c-6.1,2.6-13.9,3.5-21.6,3.2c-7.8-0.3-15.5-1.6-22.3-2.7
					c-1.6-0.2-3.2-0.5-4.8-0.9c-1.4-0.3-2.8-0.7-4.1-1.2c-1.3-0.4-2.5-0.9-3.6-1.3c-1.1-0.5-2.2-1-3.3-1.6c-2.1-1-4.1-2.3-6.2-3.5
					c-1-0.7-2.1-1.4-3.2-2.1l-1.7-1.1l-1.8-1.3c-2.9-1.7-5.2-2.9-6.6-4.3c-1.2-0.9-2.5-1.7-4-2.2c-1.7-0.7-3.4-1.6-4.9-2.8l1.3-0.4
					c-0.9-0.7-2.5-2.2-3.4-3c-0.8-0.7-0.4-0.9,0.1-0.9c0.9-0.2,1.7-0.5,0.6-2.1c-3.1-3.4-6.2-6.8-9.2-10.4c-0.9-0.7-1.8-1.5-2.7-2.3
					s-1.8-1.5-2.6-2.3l-2.5-2.4l-2.5-2.4c-0.6,0.1-1.3,0.1-1.9-0.1l-3-3c-1.4-0.1-2.2,0.8-3.1,0.7c-1.3,0.9-3.4,0.4-5.4,0
					c-2-0.4-3.9-0.7-4.7,0.7c-0.2,0.5,0.8,2.7,2.1,5.3c0.7,1.3,1.4,2.6,2,4c0.6,1.2,1.1,2.4,1.5,3.6c0.2,1-1.9-0.1-3.4-0.2
					c3.3,4.4,2.6,5.4,0.4,4.2c0.7,1.1,1.5,2.2,1.5,2.2l-1.2,0l-0.8-0.1c4,6.4,8.5,12.4,13.6,17.9c5,5.6,11,10.2,17.6,13.7
					c1.6,0.9,3.4,1.7,5.1,2.3c1.9,0.8,3.9,1.5,5.5,2c1.1,0.4,2.1,1,3,1.6c1.1,0.7,2.2,1.3,2.8,1.7c2.5,0,2.7-1.2,4-1.8
					c1.1,0.6,2.4,1.3,3.8,2l2.2,1.1l2.4,1c3.2,1.4,6.5,2.6,9.9,3.6c6.5,1.7,11.9,2,11.8,0c0.9,0.2,1.8,0.3,2.7,0.4
					c0.8,0.1,1.6,0.1,2.3,0.1c1.3,0,2.6,0,3.9-0.2c3-0.4,6.1-0.6,9.1-0.6c12.9-0.2,25.6-2.2,37.9-6.1c6.9-2.3,13.7-5.1,20.2-8.4
					l1.8-0.9l1.7-0.9l3.3-1.9c11-6.6,21-14.8,29.7-24.2c4.1-4.5,7.8-9.2,11.2-14.2c3.4-4.9,6.3-10,8.9-15.4l1.9-4
					c0.6-1.3,1.1-2.7,1.7-4.1c1.2-2.7,2-5.6,3-8.4c0.4-1.4,0.8-2.8,1.2-4.3l0.6-2.2l0.5-2.2c0.3-1.5,0.7-2.9,0.9-4.4s0.5-3,0.7-4.5
					c1.9-12.6,1.6-25.4-0.9-37.9c-5.3-26.3-18.4-51-36.9-69.3c-1.2-1.1-2.3-2.3-3.5-3.4l-3.6-3.2c-2.5-2-4.9-4.1-7.5-6
					c-5-3.8-10.3-7.1-15.9-10.1c-5.3-2.9-10.9-5.4-16.6-7.4c-2.8-1.1-5.6-1.9-8.4-2.8c-1.4-0.5-2.8-0.8-4.2-1.1l-4.2-1
					c-10.5-2.3-21.3-3.3-32.1-2.9c-9.2,0.3-18.4,1.6-27.3,3.9c-7,1.8-13.8,4.2-20.4,7.1c-2.7,1.3-5.2,2.5-7.3,3.6
					c-2.1,1.1-3.9,2.2-5.3,3.1C31.8,20.3,30,22.2,28.1,24.1z"/>
			</g>
			<g id="Group_1_" class="st0">
				<path id="Shape" class="st1" d="M231.2,84.9c-1.3-4-2.9-7.9-4.7-11.6c-0.9-1.8-1.8-3.7-2.8-5.4c-0.5-0.9-0.9-1.8-1.5-2.6
					l-1.6-2.5c-0.5-0.9-1.1-1.7-1.7-2.5c-0.6-0.8-1.1-1.6-1.7-2.4c-1.2-1.6-2.4-3.2-3.7-4.7c-2.5-3.1-5.2-6-8.1-8.7
					c-8.6-8.4-18.3-15.6-28.9-21.3c-11-5.9-22.9-9.9-35.3-11.6c-6.3-0.9-12.7-1.2-19.1-1c-6.3,0.3-12.6,1.1-18.8,2.4
					C90,15.2,77.2,20.1,65.7,27.2c-12.4,7.6-23.1,17.7-31.5,29.5c-0.5,0.6-1.2,1.6-2,2.6c-0.7,1.1-1.5,2.3-2.2,3.4
					c-1.3,2.3-2.1,4.2-1.4,4.2c-7.4,12.1-12.4,25.5-14.7,39.5c-2.3,13.8-1.7,28,1.7,41.6c0.6,2.8,1.4,5.7,2.2,8.6s1.7,5.7,2.7,8.5
					c1.9,5.7,4.5,11.1,7.6,16.2c0.6,1,1.3,2,1.9,3s1.3,2,2,3c1.4,1.9,2.7,3.9,4.2,5.8l2.2,2.8l2.3,2.7l1.1,1.4l1.2,1.3l2.4,2.6
					c6.5,6.9,13.9,12.9,22,17.9l4.9,2.3c1.6,0.6,3.1,1.3,4.6,2.1c11.1,6,23.3,9.6,35.9,10.7c3,0.3,6.1,0.4,9.1,0.4l4.6-0.1
					c1.5,0,3-0.2,4.5-0.3c3-0.2,6-0.6,9-1c1.5-0.2,3-0.5,4.4-0.8s3-0.5,4.4-0.9c2.3-0.5,4.5-0.9,6.5-1.6c2-0.7,4.1-1.1,6-1.9
					c1.9-0.8,3.9-1.3,5.8-2.1c1.9-0.8,4-1.5,6-2.5c0.5-0.6,1.1-1,1.7-1.3c0.8-0.5,1.9-0.9,3-1.6c3-1.5,13.1-6.5,21.7-13.2l3.2-2.5
					c1-0.8,2-1.7,3-2.5c2-1.6,3.7-3.3,5.2-4.7c1.5-1.4,2.8-2.8,3.8-3.8c0.7-0.7,1.3-1.3,2.1-2c-0.5,0.8-1.1,1.5-1.7,2.2l-2.3,2.8
					l-3.2,3.5c-6,6.3-12.8,11.9-20.1,16.7c-7.3,4.8-15.2,8.7-23.4,11.8c-6.7,2.4-11.2,3.5-10.8,3.7c0.2,0,1.2-0.2,2.7-0.6
					c0.7-0.2,1.6-0.4,2.6-0.7l3.2-1c2.4-0.7,5-1.8,7.9-2.8c1.4-0.5,2.8-1.3,4.3-1.9l2.2-1c0.7-0.4,1.5-0.8,2.2-1.1
					c1.4-0.8,2.9-1.5,4.3-2.3l4.1-2.5c1.3-0.8,2.6-1.7,3.8-2.5c1.2-0.8,2.4-1.6,3.4-2.4c4.3-3.1,7.2-5.7,8-6.4
					c-7.7,7.3-16.3,13.4-25.6,18.4c-7.6,4-15.7,7.2-24,9.5c-6.6,1.7-13.3,3-20.1,3.7l-4.3,0.3c-1.4,0.1-2.7,0.2-4,0.2
					c-2.6,0-4.9,0.1-7.1,0c-5.7-0.2-11.4-0.7-17-1.6c-2.9-0.5-3.3-0.5-1.8-0.2c0.8,0.2,2,0.5,3.7,0.8c1.7,0.3,3.7,0.6,6.1,0.9
					c5.9,0.7,11.9,0.9,17.9,0.8c7.4-0.3,14.7-1.2,21.9-2.8c1.9-0.5,3.7-0.9,5.6-1.4l5.5-1.6c1.8-0.6,3.5-1.3,5.3-1.9l1.3-0.5
					l1.3-0.5l2.5-1.1c8.3-3.2,19.6-9.5,32.6-20.7c-4.8,4.7-10,8.9-15.4,12.8c-2.8,2.2-5.9,3.9-8.3,5.4c-2.5,1.4-4.5,2.4-5.7,3
					c-6.6,3.1-13.4,5.7-20.4,7.8c-3,0.8-6,1.5-9,2l-3,0.5c-1.1,0.1-2.2,0.2-3.5,0.4c-1.2,0.1-2.6,0.2-4,0.3l-4.7,0.1
					c-13.5,0.3-27-1.4-40-5.1c-12.3-3.5-24.1-9-34.7-16.2c6.4,3.7,13,6.9,19.8,9.5c7.8,3,15.8,5.4,23.9,7.4c-7.4-2.1-13.1-4.2-18-6
					c-4.9-1.8-9-3.5-13.1-5.4l-3.2-1.4c-1-0.5-2-1.1-3.1-1.6c-2.1-1.1-4.3-2.4-6.6-3.9c-5.6-3.7-10.8-8-15.4-12.9l-3.5-3.5l-3.8-4
					l-3.2-4.4c-1.1-1.5-2.1-3.2-3.3-5c-7.3-10.7-12.9-22.5-16.7-34.9c-0.9-3-1.7-6.1-2.4-9.2c-0.6-3.1-1.2-6.2-1.6-9.5
					c-0.2-1.6-0.4-3.2-0.5-4.8c-0.1-1.6-0.3-3.2-0.3-4.8c-0.1-1.6-0.1-3.3-0.1-4.9c0-1.6,0.1-3.3,0.1-5c0,2.3-0.7,3.7-0.7,6.1
					c0,1.4,0,2.8-0.1,4.3c0,1.5,0.1,2.8,0.2,4.2l0.1,2.1l0.2,2.1c0.2,1.4,0.3,2.7,0.5,4.1l0.7,4l0.4,2c0.1,0.7,0.3,1.3,0.5,2l0.9,4
					c0.4,1.3,0.8,2.6,1.2,3.9l0.6,1.9c0.2,0.7,0.4,1.3,0.7,1.9c0.5,1.3,0.9,2.6,1.4,3.9c0.4,1.3,1.1,2.6,1.6,3.9l0.8,1.9
					c0.3,0.6,0.6,1.3,0.9,1.9c2.4,5.4,5.2,10.6,8.3,15.7c2.3,4.1,6.9,8.8,10,12.6c6.5,7.6,12.5,14.2,19.8,20.3
					c-1.9-1.4-3.9-2.8-5.7-4.3c-0.9-0.8-1.9-1.5-2.8-2.4l-2.8-2.6l-1.4-1.3l-1.3-1.4l-2.7-2.7l-2.6-2.9c-0.9-0.9-1.7-1.9-2.5-3
					l-2.5-3.1c-0.8-1-1.5-2.1-2.3-3.2c-1.6-2.1-2.9-4.4-4.4-6.5c-2.7-4.4-5.2-9-7.3-13.7c-0.5-0.9-0.9-1.9-1.5-2.9s-0.9-2-1.5-3
					s-1-1.9-1.5-2.8L7.8,163c3,9.1,7,17.7,12,25.8c4.7,7.5,10.3,14.3,16.6,20.5c6.5,6.4,13.7,12.1,21.5,16.9
					c7.2,4.5,14.8,8.3,22.8,11.5c6.5,2.6,13.2,4.8,19.9,6.7c0.7,0.1,1.4,0.3,2.8,0.4c0.4,0.2,0.9,0.3,1.3,0.4l3.6,0.6l3.8,0.6
					c2.6,0.4,5.2,0.7,7.7,1.1c-4.3-0.3-8.5-0.8-12.7-1.6c-8.6-0.9-17.1-2.9-25.3-5.9c-8.6-3.1-16.7-7.3-24.3-12.3
					C42,217.5,28.9,204.1,19,188.4c-1.1-1.7-2.3-3.8-3.4-6s-2.3-4.7-3.3-7.2c-2.1-5-3.7-10.1-5.2-13.9c-4-11.5-6.1-23.5-6.2-35.7
					c-0.1-3,0.1-6.1,0.2-9.1l0.4-4.6c0.1-0.8,0.1-1.5,0.2-2.3l0.3-2.3c0.9-6,2.2-11.9,4-17.6l1.2-3.8c0.4-1.3,0.9-2.5,1.4-3.8
					c0.9-2.5,2-5,3.1-7.4c8.8-19.5,22.5-36.3,39.8-48.9c2.1-1.6,4.3-3,6.5-4.5c1.1-0.7,2.2-1.4,3.4-2c1.1-0.7,2.2-1.4,3.4-2
					c9.1-5,18.9-8.8,29-11.4c5-1.3,10.1-2.2,15.2-2.8c5.1-0.6,10.2-0.8,15.4-0.8c10.2,0.1,20.3,1.5,30.1,4.2
					c19.3,5.3,36.9,15.4,51.1,29.4c1.4,1.2,2.7,2.5,4,3.7l-1.4-1.9c1.2,1.3,2.3,2.5,3.4,3.9c1.8,1.8,3.4,3.7,5.1,5.5
					c1.6,1.9,3.1,3.9,4.5,5.9c2.8,4,5.2,8.2,7.3,12.6c0.8,1.8-0.1,0.3-1.4-2c-1.3-2.2-2.7-4.3-4.4-6.3c1.2,1.8,2.3,3.8,2.3,3.8
					l-0.9-0.4c0.7,1.1,1.3,2.2,1.7,3.5c-5.5-9.2-12.3-17.5-20.1-24.8c-7.9-7.3-16.7-13.5-26.3-18.4c1.9,1.8,7.5,4.7,9.9,6.5
					c5.9,3.5,11.4,7.8,16.3,12.7c6.6,6.2,12.4,13.3,17,21.2c2.3,3.9,4.3,7.8,6.2,11.9c1.8,4,3.3,8.2,4.7,12.2
					c0.4,1.5,0.8,3.1,1.1,4.6c0.3,1.5,0.6,3,0.9,4.6c0.2,1,0.1,1.3-0.1,1c-0.2-0.3-0.3-0.5-0.4-0.8c-0.2-0.4-0.4-0.8-0.6-1.3
					C233.3,91.2,232.2,87.9,231.2,84.9z M17.4,69.6c3.1-5.5,6.7-10.7,10.7-15.6c1.3-1.8,2.7-3.6,4.1-5.3l5.7-6.8
					c4.2-4.2,8.7-8.2,13.4-11.8c4.7-3.5,9.7-6.7,14.9-9.6c-5.6,2.7-10.9,5.9-15.9,9.5c-5.7,4.1-10.9,8.9-15.6,14.1
					C47,30.1,62.5,19.4,80,12.9c16.4-6,33.9-8.3,51.2-6.8c5.3,0.3,10.6,0.9,15.8,1.9c5.3,1,10.5,2.4,15.6,4
					c7.2,2.3,14.1,5.2,20.8,8.7c-10.1-5.9-21-10.4-32.4-13.1c-5.7-1.4-11.5-2.3-17.4-2.8c-2.9-0.2-5.9-0.5-8.8-0.5
					c-3,0-5.9,0-8.9,0.2c-11.9,0.7-23.7,3.1-34.9,7.3c-11.3,4.2-22,10.1-31.6,17.5C39.6,36.8,31,45.7,24,55.7
					c-0.9,1.3-1.8,2.5-2.6,3.8l-2.5,4c-1.5,2.7-3.1,5.4-4.4,8.2s-2.6,5.7-3.8,8.5c-1.2,2.8-2.2,5.8-3.1,8.8
					c-7.6,24.4-7.3,50.6,0.9,74.9c-4.7-15.7-6.4-32.1-4.9-48.4C5,99.4,9.7,83.8,17.4,69.6L17.4,69.6z"/>
				<path id="Path_1_" class="st1" d="M166.8,9.7c12.9,5.4,24.7,13,34.8,22.6c-3.5-4.1-7.4-7.9-11.7-11.2c-0.8-0.7-1.7-1.2-2.6-1.9
					c-0.9-0.7-1.8-1.2-2.7-1.8c-1.9-1.1-3.7-2.3-5.7-3.3c-4-2.2-8.1-4.1-12.3-5.7c-4.3-1.6-8.7-3-13.2-4.2c-4.5-1.1-9-2.1-13.5-2.7
					c-6.5-1-13.1-1.4-19.6-1.3c-6.7,0.1-13.3,0.7-19.9,1.9c-1.6,0.3-3.3,0.6-5,1l-4.9,1.2l-4.9,1.5c-1.6,0.5-3.2,1.1-4.8,1.7
					C61.1,14.5,43.6,26.7,30,42.6C20.7,53.5,13.4,65.9,8.3,79.3c-0.5,1.3-1.3,3.5-2.1,5.8c-0.4,1.2-0.7,2.5-1.1,3.7
					c-0.3,1.2-0.6,2.4-0.8,3.7c4.7-17.3,13-33.4,24.4-47.1c11.1-13.4,24.9-24.3,40.4-32C99.8-1.8,136.2-3,166.8,9.7z"/>
				<path id="Path_2_" class="st1" d="M14.2,183.3c5.2,9.1,11.4,17.6,18.5,25.5c-5.8-7.2-13.1-17.5-17.7-26.5
					c-6.8-12.5-11.3-26.1-13.5-40.1C3.1,156.5,7.5,170.4,14.2,183.3L14.2,183.3z"/>
				<path id="Path_3_" class="st1" d="M4.3,92.5l-1.1,4.2c-0.3,1.4-0.6,2.8-0.9,4.3c-2.6,13.5-2.9,27.4-0.9,41.1
					c-0.8-7.3-1-14.7-0.5-22c0.4-7.3,1.5-14.6,3.2-21.7C3.5,98.3,3.7,95.8,4.3,92.5z"/>
			</g>
			<path id="Path_4_" class="st1" d="M100.6,109.1c1.1,51.3,1.1,57.2,4.6,68.8c18.4-34.1,31.1-80.1,46.5-101.6
				c1.5-1.9,6-3.2,9.9-3.2c2.1,0,4.1,0.3,5.2,1.3h-0.2c1.5,1.4,1.3,3.4-1,5.1h0.2c-16.1,27.7-26.2,56.4-40.7,85.4
				c-5.2,8.8-8.9,17.8-13.5,20.2c-1.5,0.9-3.7,1.3-6.5,0.6c-6.7-0.8-14-6.1-15.6-13.1c-2.3-10.7-2.6-24-5.2-70.8l-0.8-7.9
				c-0.2-1.7-0.7-3.4-1.6-5c-0.7-1.1,1.5-1.8,5-1.9c4.5-0.3,8.9,1.5,11.9,4.8C100.3,98,100.3,104.1,100.6,109.1z"/>
			<path id="Shape_1_" class="st1" d="M160.8,168.3c1.3,3.5,4.3,5.6,7.8,5.1c11.3-1.6,21.7-19.5,26.3-31.6c0.5-1.3,1.4-3.2,2.7-3.2
				c3.2,0,4.9,1.9,4.9,5.6c0,9.6-9.3,25.4-16.8,31.8c-4.9,4-11,6.1-17.3,6c-6.1,0-12-1.9-16.3-6.1c-5.6-5.1-7.2-13.4-6.2-21.7
				c1.4-10.4,7.3-23,18-27.8c2-0.9,4.2-1.4,6.4-1.4c1.9,0,3.7,0.4,5.4,1.1c4.9,1.9,9.1,5.6,10.2,11.2
				C186,151.5,165.4,166.5,160.8,168.3z M174,136c-2.6-1.8-7.5,5.9-8.9,8c-2.9,4.6-5,9.6-6.2,14.8c4.9-3,9.9-9.1,14.1-15.8
				C174.6,140,174.8,136.8,174,136L174,136z"/>
			<path id="Path_5_" class="st1" d="M222,160.7c0.1-6.6,1.1-13.2,2.9-19.6c-6.7,7.8-11.8,17.3-24.3,39.8c-0.6,2.4-3.1,2.6-6,1
				c-3.4-1.5-8.4-5.2-8.1-9.6c0-9.8,6.7-30.7,10.7-40.6c0.9-1.5,2.6-2.4,4.4-2.3c2.6,0,7.6,1.5,9.2,3.8c0.8,1.1,0.2,1.1-1.5,4.9
				c-2,4.6-3.6,9.2-4.9,14c5.2-7.7,15.4-20.9,22.8-24c7.8-0.8,14.6,5.9,12.9,12.4c-1.8,7-5.3,16.8-5.3,25.3c0,2.3,0.3,4.5,1,6.7
				c5.2-2.3,14.4-16.5,19.4-31c0.5-1.3,1.5-3.3,2.8-3.3c3.2,0,5.7,2.3,5.2,6.2c-1,7.8-8.1,24.2-13.9,30.5c-2.9,3.1-8.7,5.4-12.9,5.4
				C226.5,180.3,222,170.3,222,160.7z"/>
			<path id="Path_6_" class="st1" d="M259.7,119.1c6.5-22.4,6.5-22.2,7-23.2c1.7-5.1,12.6,0.9,12.2,6.8c-2.8,12.2-3.1,13.5-4.1,16.1
				c1.6,0,5.9,0,8.4,1.1c2.2,0.8,4.8,3.1,6.5,4.8c0.9,1.4-0.6,2.4-5,2.4c-2.2-0.2-1.4-0.2-12.8,0.5c-6.1,23-9.8,45.7-7.2,45.8
				c4.7-1.4,13.9-14.8,20-31.5c0.5-1.3,1.4-3.2,2.7-3.2c3.1,0,4.8,2.4,4.8,6.3c0,8.2-8.6,25.1-13.9,30.9c-3.3,3.5-7.3,6.1-11.8,6.1
				c-8,0-15.7-6.1-15.3-20.4c0.8-10.8,2.6-21.5,5.5-31.9l-1.8-0.2c-8.7,0.2-9.8-4.5-9.5-5.1c0.2-0.8,0.3-3.7,3.3-4.3L259.7,119.1z"
				/>
			<path id="Shape_2_" class="st1" d="M294.2,168.4c1.1,3.4,3.6,4.8,6.9,4.8c8.7,0,22.1-9.9,25.5-19.4c0.5-1.3,1.4-3.2,2.7-3.2
				c3.2,0,4.9,2.4,4.9,6.2c0,1.8-0.2,3.6-0.8,5.3c-3.9,14.1-15.3,20.8-26.9,20.8c-7.1-0.1-14-2.5-19.7-6.9
				c-5.6-5.1-8.2-13.5-7.2-21.8c1.4-10.4,7.2-23.1,17.8-27.9c2-0.9,4.1-1.4,6.3-1.4c1.8,0,3.7,0.4,5.4,1.1c4.9,1.9,9,5.7,10.1,11.2
				C319.1,151.6,298.7,166.7,294.2,168.4z M307.3,136.1c-2.5-1.8-7.4,5.9-8.8,8c-2.9,4.6-4.9,9.6-6.1,14.9c4.9-3,9.8-9.1,13.9-15.9
				C307.9,140.1,308,136.9,307.3,136.1L307.3,136.1z"/>
		</g>
	</g>
</g>
</svg>
